<svg width="31" height="30" viewBox="0 0 31 30" fill="none" xmlns="http://www.w3.org/2000/svg">
<path d="M8.23958 1.66666C8.23958 0.976301 7.66594 0.416656 6.95833 0.416656C6.25071 0.416656 5.67708 0.976301 5.67708 1.66666V4.69403C3.12641 5.04584 1.11134 7.01408 0.770229 9.52472L0.622371 10.613C0.597303 10.7975 0.573332 10.9821 0.55046 11.1668C0.489786 11.6567 0.885444 12.0833 1.39129 12.0833H29.6086C30.1144 12.0833 30.5101 11.6567 30.4494 11.1668C30.4266 10.9821 30.4026 10.7975 30.3775 10.613L30.2297 9.52472C29.8885 7.0141 27.8735 5.0459 25.3229 4.69405V1.66666C25.3229 0.976301 24.7493 0.416656 24.0417 0.416656C23.334 0.416656 22.7604 0.976301 22.7604 1.66666V4.44605C17.9297 4.02633 13.0703 4.02633 8.23958 4.44604V1.66666Z" fill="black"/>
<path d="M30.7803 15.3759C30.7653 14.9319 30.3892 14.5833 29.9338 14.5833H1.06606C0.610663 14.5833 0.234546 14.9319 0.21959 15.3759C0.118118 18.3887 0.305696 21.4076 0.781866 24.3931C1.14234 26.6532 3.02434 28.3891 5.35748 28.6136L7.39553 28.8096C12.7854 29.3282 18.2145 29.3282 23.6044 28.8096L25.6424 28.6136C27.9755 28.3891 29.8575 26.6532 30.218 24.3931C30.6942 21.4076 30.8818 18.3887 30.7803 15.3759Z" fill="black"/>
</svg>
