<svg width="32" height="25" viewBox="0 0 32 25" fill="none" xmlns="http://www.w3.org/2000/svg">
<path d="M9.7 0.75C4.8335 0.75 0.6875 4.2155 0.6875 8.71633C0.6875 11.8212 2.21411 14.4353 4.23736 16.6007C6.25366 18.7587 8.855 20.57 11.2067 22.0861L15.2643 24.7018C15.7086 24.9883 16.2914 24.9883 16.7357 24.7018L20.7933 22.0861C23.145 20.57 25.7463 18.7587 27.7626 16.6007C29.7859 14.4353 31.3125 11.8212 31.3125 8.71633C31.3125 4.2155 27.1665 0.75 22.3 0.75C19.7914 0.75 17.584 1.87023 16 3.31972C14.416 1.87023 12.2086 0.75 9.7 0.75Z" fill="black"/>
</svg>
