<svg width="31" height="23" viewBox="0 0 31 23" fill="none" xmlns="http://www.w3.org/2000/svg">
<path fill-rule="evenodd" clip-rule="evenodd" d="M8.20413 0.793728C13.0589 0.394523 17.9412 0.394522 22.7959 0.793727L25.1242 0.98518C27.352 1.16837 29.1568 2.77202 29.4893 4.86384C30.1887 9.26322 30.1887 13.7368 29.4893 18.1362C29.4282 18.521 29.3172 18.8893 29.1628 19.2353C29.0605 19.4647 28.7448 19.4996 28.5678 19.3153L21.7514 12.2226C21.4434 11.9021 20.9646 11.7838 20.5302 11.9207L16.6285 13.151L10.9684 7.12752C10.7568 6.90238 10.4565 6.76974 10.1381 6.76089C9.81984 6.75205 9.51176 6.86777 9.28659 7.08077L1.71065 14.2472C1.47749 14.4678 1.07983 14.3274 1.06124 14.016C0.87896 10.9624 1.02879 7.8955 1.51073 4.86384C1.84326 2.77202 3.64805 1.16837 5.87586 0.98518L8.20413 0.793728ZM18.5834 7.12501C18.5834 5.91688 19.6187 4.93751 20.8959 4.93751C22.173 4.93751 23.2084 5.91688 23.2084 7.12501C23.2084 8.33313 22.173 9.31251 20.8959 9.31251C19.6187 9.31251 18.5834 8.33313 18.5834 7.12501Z" fill="black"/>
<path d="M1.56541 17.4782C1.48008 17.5589 1.43954 17.6728 1.45654 17.7858C1.47411 17.9026 1.49217 18.0194 1.51073 18.1362C1.84326 20.228 3.64805 21.8316 5.87586 22.0148L8.20414 22.2063C13.0589 22.6055 17.9412 22.6055 22.7959 22.2063L25.1242 22.0148C25.7789 21.961 26.397 21.7845 26.9519 21.509C27.1622 21.4046 27.1976 21.1416 27.0379 20.9754L20.7158 14.397C20.6132 14.2902 20.4535 14.2507 20.3088 14.2964L16.6365 15.4543C16.1977 15.5927 15.7139 15.4703 15.4067 15.1433L10.3262 9.73679C10.1789 9.58001 9.92245 9.57288 9.76564 9.72121L1.56541 17.4782Z" fill="black"/>
</svg>
