<svg width="30" height="31" viewBox="0 0 30 31" fill="none" xmlns="http://www.w3.org/2000/svg">
<path fill-rule="evenodd" clip-rule="evenodd" d="M4.8125 5.28125C4.8125 2.3645 7.35888 0 10.5 0C12.2591 0 13.8317 0.741597 14.875 1.90647C15.9183 0.741597 17.4909 0 19.25 0C22.3911 0 24.9375 2.3645 24.9375 5.28125C24.9375 6.50693 24.4878 7.63509 23.7334 8.53125H25.375C27.7912 8.53125 29.75 10.3501 29.75 12.5938V14.625C29.75 15.2981 29.1624 15.8438 28.4375 15.8438H16.7125C16.4226 15.8438 16.1875 15.6255 16.1875 15.3562V9.73227C15.6923 9.4379 15.2496 9.07425 14.875 8.65602C14.5004 9.07425 14.0577 9.4379 13.5625 9.73227V15.3562C13.5625 15.6255 13.3274 15.8438 13.0375 15.8438H1.3125C0.587626 15.8438 0 15.2981 0 14.625V12.5938C0 10.3501 1.95875 8.53125 4.375 8.53125H6.01664C5.26215 7.63509 4.8125 6.50693 4.8125 5.28125ZM13.5625 5.28125C13.5625 3.71069 12.1914 2.4375 10.5 2.4375C8.80863 2.4375 7.4375 3.71069 7.4375 5.28125C7.4375 6.85181 8.80863 8.125 10.5 8.125C12.1914 8.125 13.5625 6.85181 13.5625 5.28125ZM16.1875 5.28125C16.1875 6.85181 17.5586 8.125 19.25 8.125C20.9414 8.125 22.3125 6.85181 22.3125 5.28125C22.3125 3.71069 20.9414 2.4375 19.25 2.4375C17.5586 2.4375 16.1875 3.71069 16.1875 5.28125Z" fill="black"/>
<path d="M13.5625 18.525C13.5625 18.2558 13.3274 18.0375 13.0375 18.0375H3.76077C3.05088 18.0375 2.44427 18.5125 2.32437 19.1622C1.93578 21.2679 1.93578 23.4196 2.32437 25.5253L2.71691 27.6525C2.98123 29.0848 4.23396 30.182 5.78922 30.3434L7.65318 30.5368C9.43977 30.7222 11.2326 30.8386 13.027 30.886C13.3209 30.8938 13.5625 30.6738 13.5625 30.4007L13.5625 18.525Z" fill="black"/>
<path d="M16.723 30.886C16.4291 30.8938 16.1875 30.6738 16.1875 30.4007L16.1875 18.525C16.1875 18.2558 16.4226 18.0375 16.7125 18.0375H25.9892C26.6991 18.0375 27.3057 18.5125 27.4256 19.1622C27.8142 21.2679 27.8142 23.4196 27.4256 25.5253L27.0331 27.6525C26.7688 29.0848 25.516 30.182 23.9608 30.3434L22.0968 30.5368C20.3102 30.7222 18.5174 30.8386 16.723 30.886Z" fill="black"/>
</svg>
