<svg width="34" height="25" viewBox="0 0 34 25" fill="none" xmlns="http://www.w3.org/2000/svg">
<path d="M8.75605 0.974856C14.2417 0.532063 19.7583 0.532063 25.2439 0.974856L27.8869 1.18819C29.6462 1.33021 31.1531 2.30467 31.9339 3.69856C32.0338 3.87688 31.9589 4.09278 31.7748 4.19858L20.8094 10.5018C18.4577 11.8537 15.4922 11.8821 13.111 10.5755L2.07229 4.51852C1.89395 4.42066 1.81209 4.21922 1.89246 4.04193C2.60674 2.46639 4.21259 1.3416 6.11315 1.18819L8.75605 0.974856Z" fill="black"/>
<path d="M1.88348 7.24616C1.61054 7.0964 1.26229 7.25757 1.23047 7.55046C0.786437 11.6384 0.893906 15.765 1.55288 19.8341C1.90028 21.9793 3.78574 23.6239 6.11315 23.8118L8.75606 24.0251C14.2417 24.4679 19.7583 24.4679 25.2439 24.0251L27.8869 23.8118C30.2143 23.6239 32.0997 21.9793 32.4471 19.8341C33.1253 15.6464 33.2194 11.3978 32.7293 7.19318C32.6949 6.89822 32.3408 6.74003 32.0691 6.89619L22.1911 12.5744C19.0093 14.4033 14.9973 14.4417 11.7756 12.674L1.88348 7.24616Z" fill="black"/>
</svg>
