<svg width="23" height="32" viewBox="0 0 23 32" fill="none" xmlns="http://www.w3.org/2000/svg">
<path d="M7.03125 13.4167C7.03125 10.6495 9.03198 8.40625 11.5 8.40625C13.968 8.40625 15.9688 10.6495 15.9688 13.4167C15.9688 16.1838 13.968 18.4271 11.5 18.4271C9.03198 18.4271 7.03125 16.1838 7.03125 13.4167Z" fill="black"/>
<path fill-rule="evenodd" clip-rule="evenodd" d="M0.188621 11.686C0.661125 5.25886 5.45134 0.3125 11.2031 0.3125H11.797C17.5487 0.3125 22.3389 5.25886 22.8114 11.686C23.0658 15.1464 22.1125 18.5825 20.1522 21.2704L13.5618 30.3073C12.4962 31.7685 10.5039 31.7685 9.43831 30.3073L2.84785 21.2704C0.887566 18.5825 -0.0657787 15.1464 0.188621 11.686ZM11.5 6.09375C7.89289 6.09375 4.96875 9.37233 4.96875 13.4167C4.96875 17.461 7.89289 20.7396 11.5 20.7396C15.1071 20.7396 18.0312 17.461 18.0312 13.4167C18.0312 9.37233 15.1071 6.09375 11.5 6.09375Z" fill="black"/>
</svg>
